<svg xmlns="http://www.w3.org/2000/svg" width="32" height="32" viewBox="0 0 32 32">
    <g fill="none" fill-rule="evenodd">
        <path d="M0 0h32v32H0z" opacity=".05"/>
        <path fill="#ec174f" fill-rule="nonzero" d="M18 9.58l-2 .36V2H9v6.276l-2 .17V1a1 1 0 0 1 1-1h9a1 1 0 0 1 1 1v8.58zm0 14.762V31a1 1 0 0 1-1 1H8a1 1 0 0 1-1-1v-2.594c-1.045.939-2.105 1.41-3.805 1.593-2.263.054-3.04-1.46-3.188-5.584-.123-3.42 1.65-9.962 3.286-14.138.14-.358.35-.693.616-1 .064-.416.25-.713.599-.956 1.52-1.06 3.27-1.52 4.971-1.241.355.058.595.217.816.468.295.097.57.224.817.383 1.061.678 2.195.88 4.388.88s3.328-.203 4.389-.88c.036-.024.073-.046.111-.068V3a1 1 0 0 1 2 0v4.029c1.577-.154 3.177.312 4.582 1.292.35.243.535.54.595.936l.035.167c.21.266.377.551.495.853 1.635 4.176 3.41 10.718 3.286 14.138-.149 4.142-.933 5.652-3.295 5.578-2.002-.218-3.125-.878-4.438-2.3-.107-.117-.585-.648-.719-.792a13.353 13.353 0 0 0-.541-.555V29a1 1 0 0 1-2 0v-4.118c-.586-.292-1.2-.457-2-.54zm-9 1.982V30h7v-5.727c-.17.002-.347.004-.53.008-3.174-.063-4.19.177-5.854 1.503a8.761 8.761 0 0 0-.616.54zM21.599 9.379a1.866 1.866 0 0 0-.633.237c-1.463.935-2.922 1.195-5.466 1.195s-4.002-.26-5.465-1.195a1.795 1.795 0 0 0-.557-.22 1 1 0 0 1-.574-.376c-1.023-.101-2.087.185-3.07.818l-.028.135a1 1 0 0 1-.275.498c-.182.18-.307.36-.376.535-1.539 3.93-3.26 10.277-3.15 13.337.114 3.16.378 3.675 1.058 3.662 1.47-.16 2.174-.574 3.184-1.669.095-.104.575-.636.72-.794.315-.339.595-.62.898-.894.164-.148.332-.29.505-.428 2.093-1.668 3.542-2.01 7.1-1.939 3.595-.07 5.044.271 7.137 1.939.172.137.34.279.503.426.303.274.584.556.898.895.146.158.627.691.722.795 1.01 1.094 1.715 1.509 3.106 1.663.783.023 1.044-.48 1.159-3.656.11-3.06-1.611-9.407-3.15-13.337a1.486 1.486 0 0 0-.295-.451 1 1 0 0 1-.238-.458 46.664 46.664 0 0 1-.057-.259c-.982-.634-2.047-.92-3.07-.818a1 1 0 0 1-.586.36z"/>
        <path fill="#5b5399" d="M12.5 26a1 1 0 1 1 0 2 1 1 0 0 1 0-2zM22 16a1 1 0 1 1 0 2 1 1 0 0 1 0-2zm0-4a1 1 0 1 1 0 2 1 1 0 0 1 0-2zm2 2a1 1 0 1 1 0 2 1 1 0 0 1 0-2zm-4 0a1 1 0 1 1 0 2 1 1 0 0 1 0-2zm-4.5 4a1 1 0 1 1 0 2 1 1 0 0 1 0-2zm-7-6a2.5 2.5 0 1 1 0 5 2.5 2.5 0 0 1 0-5zm0 3a.5.5 0 1 0 0-1 .5.5 0 0 0 0 1z"/>
    </g>
</svg>
