<svg xmlns="http://www.w3.org/2000/svg" width="40" height="40" viewBox="0 0 40 40">
    <g fill="none" fill-rule="evenodd">
        <path d="M0 0h40v40H0z" opacity=".05"/>
        <path fill="#ec174f" fill-rule="nonzero" d="M15 33.75h21.25c.69 0 1.25-.56 1.25-1.25V3.75c0-.69-.56-1.25-1.25-1.25H7.5c-.69 0-1.25.56-1.25 1.25v5h5A3.75 3.75 0 0 1 15 12.5v21.25zm-11.25-25v-5A3.75 3.75 0 0 1 7.5 0h28.75A3.75 3.75 0 0 1 40 3.75V32.5a3.75 3.75 0 0 1-3.75 3.75H15A3.75 3.75 0 0 1 11.25 40h-7.5A3.75 3.75 0 0 1 0 36.25V12.5a3.75 3.75 0 0 1 3.75-3.75zm0 2.5c-.69 0-1.25.56-1.25 1.25v23.75c0 .69.56 1.25 1.25 1.25h7.5c.69 0 1.25-.56 1.25-1.25V12.5c0-.69-.56-1.25-1.25-1.25h-7.5z"/>
        <path fill="#5b5399" d="M33.75 5a1.25 1.25 0 1 1 0 2.5 1.25 1.25 0 0 1 0-2.5zm-5.931 11.731a2.5 2.5 0 0 1-.68 3.47l-4.494 3.021a2.5 2.5 0 0 1-3.895-2.075v-6.043a2.5 2.5 0 0 1 3.895-2.074l4.494 3.021c.268.18.5.412.68.68zM5 23.75a1.25 1.25 0 1 1 0 2.5 1.25 1.25 0 0 1 0-2.5zm5 0a1.25 1.25 0 1 1 0 2.5 1.25 1.25 0 0 1 0-2.5zm-2.5-10a3.75 3.75 0 1 1 0 7.5 3.75 3.75 0 0 1 0-7.5zm13.75 1.354v6.043l4.494-3.021-4.494-3.022zM7.5 16.25a1.25 1.25 0 1 0 0 2.5 1.25 1.25 0 0 0 0-2.5z"/>
    </g>
</svg>
