<svg xmlns="http://www.w3.org/2000/svg" width="32" height="32" viewBox="0 0 32 32">
    <g fill="none" fill-rule="evenodd">
        <path d="M0 0h32v32H0z" opacity=".05"/>
        <path fill="#ec174f" fill-rule="nonzero" d="M19.53 24c-.072 0-.53.378-.53.42v1.382c0-.043.371.198.53.198H20a1 1 0 0 1 0 2h-8a1 1 0 0 1 0-2h.47c.159 0 .53-.241.53-.198V24.42c0-.042-.458-.42-.53-.42H10v4a2 2 0 0 1-2 2H5a2 2 0 0 1-2-2v-4a3 3 0 0 1-3-3V6a3 3 0 0 1 3-3h26a3 3 0 0 1 3 3v15a3 3 0 0 1-3 3h-9.47zM10 22h19a1 1 0 0 0 1-1V6a1 1 0 0 0-1-1H3a1 1 0 0 0-1 1v15a1 1 0 0 0 1 1v-5a2 2 0 0 1 2-2h3a2 2 0 0 1 2 2v5zm4.947 2c.034.138.053.279.053.42v1.382c0 .067-.004.133-.011.198h2.022a1.754 1.754 0 0 1-.011-.198V24.42c0-.141.019-.282.053-.42h-2.106zM5 17v11h3V17H5z"/>
        <path fill="#5b5399" fill-rule="nonzero" d="M20.019 12.247a2 2 0 0 1-.593 2.765l-3.34 2.162A2 2 0 0 1 13 15.494v-4.322a2 2 0 0 1 3.087-1.68l3.34 2.162a2 2 0 0 1 .592.593zM6.5 19c.46 0 .833.373.833.833v.067a.833.833 0 1 1-1.666 0v-.067c0-.46.373-.833.833-.833zm8.5-7.828v4.323l3.34-2.162L15 11.172z"/>
    </g>
</svg>
