<svg xmlns="http://www.w3.org/2000/svg" width="32" height="32" viewBox="0 0 32 32">
    <g fill="none" fill-rule="evenodd">
        <path d="M0 0h32v32H0z" opacity=".05"/>
        <path fill="#ec174f" fill-rule="nonzero" d="M28 26H12v3c0 .35-.06.687-.17 1H27a1 1 0 0 0 1-1v-3zm0-2V3a1 1 0 0 0-1-1H9.034a1 1 0 0 0-1 1v9H9a3 3 0 0 1 3 3v9h16zM6.034 12V3a3 3 0 0 1 3-3H27a3 3 0 0 1 3 3v26a3 3 0 0 1-3 3H9.034A3.066 3.066 0 0 1 9 32H5a3 3 0 0 1-3-3V15a3 3 0 0 1 3-3h1.034zM5 14a1 1 0 0 0-1 1v14a1 1 0 0 0 1 1h4a1 1 0 0 0 1-1V15a1 1 0 0 0-1-1H5z"/>
        <path fill="#5b5399" fill-rule="nonzero" d="M22.09 12.283a2 2 0 0 1-.62 2.76l-3.4 2.153a2 2 0 0 1-3.07-1.69V11.2a2 2 0 0 1 3.07-1.69l3.4 2.154a2 2 0 0 1 .62.62zM7 26a1 1 0 1 1 0 2 1 1 0 0 1 0-2zm11 1a1 1 0 1 1 0 2 1 1 0 0 1 0-2zm-1-15.8v4.307l3.4-2.154-3.4-2.154z"/>
    </g>
</svg>
